<?xml version="1.0" encoding="UTF-8" standalone="no"?>
<!-- Created with Inkscape (http://www.inkscape.org/) -->

<svg
   width="100mm"
   height="100mm"
   viewBox="0 0 100 100"
   version="1.1"
   id="svg5"
   inkscape:version="1.1.1 (3bf5ae0d25, 2021-09-20)"
   sodipodi:docname="Icon2.svg"
   inkscape:export-filename="D:\User\itota\Projects\LeyEngine\Resources\Icon2.png"
   inkscape:export-xdpi="130.048"
   inkscape:export-ydpi="130.048"
   xmlns:inkscape="http://www.inkscape.org/namespaces/inkscape"
   xmlns:sodipodi="http://sodipodi.sourceforge.net/DTD/sodipodi-0.dtd"
   xmlns="http://www.w3.org/2000/svg"
   xmlns:svg="http://www.w3.org/2000/svg">
  <sodipodi:namedview
     id="namedview7"
     pagecolor="#505050"
     bordercolor="#eeeeee"
     borderopacity="1"
     inkscape:pageshadow="0"
     inkscape:pageopacity="0"
     inkscape:pagecheckerboard="0"
     inkscape:document-units="mm"
     showgrid="false"
     inkscape:zoom="1"
     inkscape:cx="182"
     inkscape:cy="103.5"
     inkscape:window-width="1280"
     inkscape:window-height="961"
     inkscape:window-x="-8"
     inkscape:window-y="32"
     inkscape:window-maximized="1"
     inkscape:current-layer="layer1"
     showguides="false" />
  <defs
     id="defs2" />
  <g
     inkscape:label="Layer 1"
     inkscape:groupmode="layer"
     id="layer1">
    <rect
       style="fill:#202020;fill-opacity:1;stroke-width:4.11938;stroke-linecap:round;stroke-linejoin:round"
       id="rect4008"
       width="100"
       height="100"
       x="0"
       y="0" />
    <path
       id="path5328"
       style="fill:#ffffff;fill-opacity:1;stroke:none;stroke-width:3.86405;stroke-linecap:round;stroke-linejoin:round"
       d="M 78.284419,21.715676 A 39.999999,39.999999 45 0 0 72.459458,16.934319 L 31.593374,57.800403 a 19.999999,19.999999 0 0 0 4.26467,6.341649 19.999999,19.999999 0 0 0 6.341651,4.264671 L 83.083683,27.522734 a 39.999999,39.999999 45 0 0 -4.799264,-5.807058 z m 7.419966,10.257721 -11.557476,11.557476 a 24.999999,24.999999 0 0 1 -6.469175,24.146861 24.999999,24.999999 0 0 1 -35.355373,0 24.999999,24.999999 0 0 1 10e-7,-35.355373 24.999999,24.999999 0 0 1 24.148323,-6.470637 L 68.013178,14.309231 a 39.999999,39.999999 45 0 0 -46.297501,7.406445 39.999999,39.999999 45 0 0 -1e-6,56.568743 39.999999,39.999999 45 0 0 56.568743,0 39.999999,39.999999 45 0 0 7.419966,-46.311022 z" />
  </g>
</svg>
