<?xml version="1.0" encoding="UTF-8" standalone="no"?>
<!-- Created with Inkscape (http://www.inkscape.org/) -->

<svg
   width="100mm"
   height="100mm"
   viewBox="0 0 100 100"
   version="1.1"
   id="svg5"
   inkscape:version="1.1.1 (3bf5ae0d25, 2021-09-20)"
   sodipodi:docname="Icon1.svg"
   inkscape:export-filename="D:\User\itota\Projects\LeyEngine\Resources\Icon1.png"
   inkscape:export-xdpi="130.048"
   inkscape:export-ydpi="130.048"
   xmlns:inkscape="http://www.inkscape.org/namespaces/inkscape"
   xmlns:sodipodi="http://sodipodi.sourceforge.net/DTD/sodipodi-0.dtd"
   xmlns="http://www.w3.org/2000/svg"
   xmlns:svg="http://www.w3.org/2000/svg">
  <sodipodi:namedview
     id="namedview7"
     pagecolor="#505050"
     bordercolor="#eeeeee"
     borderopacity="1"
     inkscape:pageshadow="0"
     inkscape:pageopacity="0"
     inkscape:pagecheckerboard="0"
     inkscape:document-units="mm"
     showgrid="false"
     inkscape:zoom="0.69130191"
     inkscape:cx="203.96298"
     inkscape:cy="236.51027"
     inkscape:window-width="1280"
     inkscape:window-height="961"
     inkscape:window-x="-8"
     inkscape:window-y="32"
     inkscape:window-maximized="1"
     inkscape:current-layer="layer1" />
  <defs
     id="defs2" />
  <g
     inkscape:label="Layer 1"
     inkscape:groupmode="layer"
     id="layer1">
    <rect
       style="fill:#202020;fill-opacity:1;stroke:none;stroke-width:4.0352;stroke-linecap:round;stroke-linejoin:round"
       id="rect5290"
       width="100"
       height="100"
       x="0"
       y="0" />
    <path
       id="path846"
       style="fill:#ffffff;stroke-width:4.42377;stroke-linecap:round;stroke-linejoin:round;fill-opacity:1"
       d="M 50,10 A 39.999962,39.999962 0 0 0 48.670885,10.073587 39.999962,39.999962 0 0 1 85.712516,39.198811 39.999962,23.999978 0 0 0 83.337055,36.743975 39.999962,39.999962 0 0 0 47.879614,10.117409 39.999962,39.999962 0 0 0 46.499236,10.19389 39.999962,39.999962 0 0 1 79.312912,33.66985 39.999962,23.999978 0 0 0 77.090827,32.344454 39.999962,39.999962 0 0 0 45.68647,10.272851 39.999962,39.999962 0 0 0 44.291207,10.490719 39.999962,39.999962 0 0 1 73.3292,30.509323 39.999962,23.999978 0 0 0 71.244368,29.665551 39.999962,39.999962 0 0 0 43.492497,10.615569 a 39.999962,39.999962 0 0 0 -1.39857,0.218281 39.999962,39.999962 0 0 1 31.876887,37.986689 23.999978,23.999978 0 0 1 0,4.13e-4 23.999978,23.999978 0 0 1 0,4.13e-4 23.999978,23.999978 0 0 1 0,4.15e-4 23.999978,23.999978 0 0 1 0,4.13e-4 A 39.999962,39.999962 0 0 1 73.999753,50 23.999978,23.999978 0 0 1 50,73.999753 23.999978,23.999978 0 0 1 25.999835,50 23.999978,23.999978 0 0 1 49.9938,26.000248 39.999962,39.999962 0 0 0 34.055976,13.376742 39.999962,39.999962 0 0 0 10,50 39.999962,39.999962 0 0 0 50,90 39.999962,39.999962 0 0 0 90,50 39.999962,39.999962 0 0 0 50,10 Z" />
  </g>
</svg>
